{
	"asset":{
		"generator":"Khronos glTF Blender I/O v3.6.28",
		"version":"2.0"
	},
	"extensionsUsed":[
		"KHR_materials_specular",
		"KHR_materials_ior"
	],
	"scene":0,
	"scenes":[
		{
			"name":"Scene",
			"nodes":[
				0,
				1,
				2,
				3,
				4,
				5
			]
		}
	],
	"nodes":[
		{
			"mesh":0,
			"name":"\u672c\u9ad4",
			"scale":[
				1.6281005144119263,
				1.4997591972351074,
				0.8030494451522827
			],
			"translation":[
				-3.0690340995788574,
				-0.3517672121524811,
				-5.725185394287109
			]
		},
		{
			"mesh":1,
			"name":"\u7269\u4ef6_11",
			"scale":[
				1.6085011959075928,
				1.6085011959075928,
				1.6085011959075928
			],
			"translation":[
				-3.053257942199707,
				1.3234190940856934,
				-5.408851623535156
			]
		},
		{
			"mesh":2,
			"name":"\u73bb\u7483",
			"scale":[
				1.6281005144119263,
				1.4997591972351074,
				0.8030494451522827
			],
			"translation":[
				-3.0690340995788574,
				-0.3517671823501587,
				-6.444413185119629
			]
		},
		{
			"mesh":3,
			"name":"\u7acb\u65b9\u9ad4",
			"scale":[
				0.23455405235290527,
				0.4127578139305115,
				0.036012083292007446
			],
			"translation":[
				-2.129936695098877,
				0.39683645963668823,
				-4.9399919509887695
			]
		},
		{
			"mesh":4,
			"name":"\u7acb\u65b9\u9ad4.012",
			"scale":[
				1.6281005144119263,
				1.4997591972351074,
				0.8030494451522827
			],
			"translation":[
				-3.0690340995788574,
				-0.3517672121524811,
				-6.606412410736084
			]
		},
		{
			"mesh":5,
			"name":"\u7acb\u65b9\u9ad4.016",
			"scale":[
				1.6281005144119263,
				1.7214269638061523,
				0.8030494451522827
			],
			"translation":[
				-2.647862195968628,
				0.1206737756729126,
				-5.057989120483398
			]
		}
	],
	"materials":[
		{
			"doubleSided":true,
			"extensions":{
				"KHR_materials_specular":{
					"specularColorFactor":[
						0.991658682454526,
						0.991658682454526,
						0.991658682454526
					]
				},
				"KHR_materials_ior":{
					"ior":1.4500000476837158
				}
			},
			"name":"\u672c\u9ad4\u8cbc\u5716",
			"pbrMetallicRoughness":{
				"baseColorTexture":{
					"index":0
				},
				"metallicFactor":0.11363637447357178,
				"roughnessFactor":0.19272726774215698
			}
		},
		{
			"doubleSided":true,
			"extensions":{
				"KHR_materials_specular":{
					"specularColorFactor":[
						1.207236583156504,
						1.207236583156504,
						1.207236583156504
					]
				},
				"KHR_materials_ior":{
					"ior":1.4500000476837158
				}
			},
			"name":"\u72d7\u72d7\u8cbc\u5716",
			"pbrMetallicRoughness":{
				"baseColorTexture":{
					"index":1
				},
				"metallicFactor":0,
				"roughnessFactor":0.370968222618103
			}
		},
		{
			"doubleSided":true,
			"name":"\u73bb\u7483",
			"pbrMetallicRoughness":{}
		},
		{
			"doubleSided":true,
			"extensions":{
				"KHR_materials_specular":{
					"specularColorFactor":[
						0.7545228644728149,
						0.7545228644728149,
						0.7545228644728149
					]
				},
				"KHR_materials_ior":{
					"ior":1.4500000476837158
				}
			},
			"name":"\u914d\u4ef6\u8cbc\u5716",
			"pbrMetallicRoughness":{
				"baseColorTexture":{
					"index":2
				},
				"metallicFactor":0,
				"roughnessFactor":0.5049999952316284
			}
		},
		{
			"doubleSided":true,
			"extensions":{
				"KHR_materials_specular":{
					"specularColorFactor":[
						1.228794500436237,
						1.228794500436237,
						1.228794500436237
					]
				},
				"KHR_materials_ior":{
					"ior":1.4500000476837158
				}
			},
			"name":"\u91d1\u5c6c _\u9280\u8272",
			"pbrMetallicRoughness":{
				"baseColorFactor":[
					0.5271153450012207,
					0.5271153450012207,
					0.5271153450012207,
					1
				],
				"metallicFactor":0.8272727131843567,
				"roughnessFactor":0.12772727012634277
			}
		},
		{
			"doubleSided":true,
			"extensions":{
				"KHR_materials_specular":{
					"specularColorFactor":[
						0.991658682454526,
						0.991658682454526,
						0.991658682454526
					]
				},
				"KHR_materials_ior":{
					"ior":1.4500000476837158
				}
			},
			"name":"\u91d1\u5c6c _\u5976\u8336\u8272",
			"pbrMetallicRoughness":{
				"baseColorFactor":[
					0.5271153450012207,
					0.3277781903743744,
					0.24620138108730316,
					1
				],
				"metallicFactor":0.5,
				"roughnessFactor":0.11999999731779099
			}
		},
		{
			"doubleSided":true,
			"extensions":{
				"KHR_materials_specular":{
					"specularColorFactor":[
						0.991658682454526,
						0.991658682454526,
						0.991658682454526
					]
				},
				"KHR_materials_ior":{
					"ior":1.4500000476837158
				}
			},
			"name":"\u91d1\u5c6c _\u9ed1\u8272",
			"pbrMetallicRoughness":{
				"baseColorFactor":[
					0.05877021327614784,
					0.05877021327614784,
					0.05877021327614784,
					1
				],
				"metallicFactor":0.5,
				"roughnessFactor":0.004999999888241291
			}
		},
		{
			"doubleSided":true,
			"extensions":{
				"KHR_materials_specular":{
					"specularColorFactor":[
						0.991658682454526,
						0.991658682454526,
						0.991658682454526
					]
				},
				"KHR_materials_ior":{
					"ior":1.4500000476837158
				}
			},
			"name":"\u91d1\u5c6c _\u767d\u8272",
			"pbrMetallicRoughness":{
				"baseColorFactor":[
					0.5271153450012207,
					0.5271153450012207,
					0.5271153450012207,
					1
				],
				"metallicFactor":0.5,
				"roughnessFactor":0.004999999888241291
			}
		},
		{
			"doubleSided":true,
			"emissiveFactor":[
				1,
				1,
				1
			],
			"name":"\u6750\u8cea.001",
			"pbrMetallicRoughness":{
				"baseColorFactor":[
					0.800000011920929,
					0.800000011920929,
					0.800000011920929,
					1
				],
				"metallicFactor":0,
				"roughnessFactor":0.5
			}
		}
	],
	"meshes":[
		{
			"name":"\u7acb\u65b9\u9ad4.001",
			"primitives":[
				{
					"attributes":{
						"POSITION":0,
						"NORMAL":1,
						"TEXCOORD_0":2
					},
					"indices":3,
					"material":0
				}
			]
		},
		{
			"name":"\u7269\u4ef6_11.001",
			"primitives":[
				{
					"attributes":{
						"POSITION":4,
						"NORMAL":5,
						"TEXCOORD_0":6
					},
					"indices":7,
					"material":1
				}
			]
		},
		{
			"name":"\u7acb\u65b9\u9ad4.032",
			"primitives":[
				{
					"attributes":{
						"POSITION":8,
						"NORMAL":9,
						"TEXCOORD_0":10
					},
					"indices":11,
					"material":2
				}
			]
		},
		{
			"name":"\u7acb\u65b9\u9ad4.003",
			"primitives":[
				{
					"attributes":{
						"POSITION":12,
						"NORMAL":13,
						"TEXCOORD_0":14
					},
					"indices":15,
					"material":3
				}
			]
		},
		{
			"name":"\u7acb\u65b9\u9ad4.019",
			"primitives":[
				{
					"attributes":{
						"POSITION":16,
						"NORMAL":17,
						"TEXCOORD_0":18
					},
					"indices":19,
					"material":4
				},
				{
					"attributes":{
						"POSITION":20,
						"NORMAL":21,
						"TEXCOORD_0":22
					},
					"indices":23,
					"material":5
				},
				{
					"attributes":{
						"POSITION":24,
						"NORMAL":25,
						"TEXCOORD_0":26
					},
					"indices":27,
					"material":6
				},
				{
					"attributes":{
						"POSITION":28,
						"NORMAL":29,
						"TEXCOORD_0":30
					},
					"indices":31,
					"material":7
				}
			]
		},
		{
			"name":"\u7acb\u65b9\u9ad4.024",
			"primitives":[
				{
					"attributes":{
						"POSITION":32,
						"NORMAL":33,
						"TEXCOORD_0":34
					},
					"indices":35,
					"material":8
				}
			]
		}
	],
	"textures":[
		{
			"sampler":0,
			"source":0
		},
		{
			"sampler":0,
			"source":1
		},
		{
			"sampler":0,
			"source":2
		}
	],
	"images":[
		{
			"mimeType":"image/png",
			"name":"\u672c\u9ad4\u8cbc\u5716_01",
			"uri": "texture/body_texture_01.png"
		},
		{
			"mimeType":"image/png",
			"name":"\u72d7\u72d7\u8cbc\u5716_01",
			"uri": "texture/dog_texture_01.png"
		},
		{
			"mimeType":"image/png",
			"name":"\u914d\u4ef6\u8cbc\u5716_01",
			"uri": "texture/parts_texture_01.png"
		}
	],
	"accessors":[
		{
			"bufferView":0,
			"componentType":5126,
			"count":2315,
			"max":[
				1.0946731567382812,
				1.126989483833313,
				1.2206782102584839
			],
			"min":[
				-1.0630208253860474,
				-1.4011014699935913,
				-1.1370937824249268
			],
			"type":"VEC3"
		},
		{
			"bufferView":1,
			"componentType":5126,
			"count":2315,
			"type":"VEC3"
		},
		{
			"bufferView":2,
			"componentType":5126,
			"count":2315,
			"type":"VEC2"
		},
		{
			"bufferView":3,
			"componentType":5123,
			"count":7044,
			"type":"SCALAR"
		},
		{
			"bufferView":4,
			"componentType":5126,
			"count":115307,
			"max":[
				0.8065696954727173,
				0.652281641960144,
				0.3529920279979706
			],
			"min":[
				-0.807206928730011,
				-0.07166703045368195,
				-0.6674332618713379
			],
			"type":"VEC3"
		},
		{
			"bufferView":5,
			"componentType":5126,
			"count":115307,
			"type":"VEC3"
		},
		{
			"bufferView":6,
			"componentType":5126,
			"count":115307,
			"type":"VEC2"
		},
		{
			"bufferView":7,
			"componentType":5125,
			"count":601749,
			"type":"SCALAR"
		},
		{
			"bufferView":8,
			"componentType":5126,
			"count":24,
			"max":[
				0.25959205627441406,
				0.8414313793182373,
				1.789198637008667
			],
			"min":[
				-0.8985905051231384,
				-1.1642050743103027,
				1.7647080421447754
			],
			"type":"VEC3"
		},
		{
			"bufferView":9,
			"componentType":5126,
			"count":24,
			"type":"VEC3"
		},
		{
			"bufferView":10,
			"componentType":5126,
			"count":24,
			"type":"VEC2"
		},
		{
			"bufferView":11,
			"componentType":5123,
			"count":36,
			"type":"SCALAR"
		},
		{
			"bufferView":12,
			"componentType":5126,
			"count":1887,
			"max":[
				2.665602207183838,
				1,
				1.9745471477508545
			],
			"min":[
				-1.5351834297180176,
				-3.338467597961426,
				-1
			],
			"type":"VEC3"
		},
		{
			"bufferView":13,
			"componentType":5126,
			"count":1887,
			"type":"VEC3"
		},
		{
			"bufferView":14,
			"componentType":5126,
			"count":1887,
			"type":"VEC2"
		},
		{
			"bufferView":15,
			"componentType":5123,
			"count":5154,
			"type":"SCALAR"
		},
		{
			"bufferView":16,
			"componentType":5126,
			"count":192,
			"max":[
				-0.8113311529159546,
				0.7510710954666138,
				1.658009648323059
			],
			"min":[
				-0.833126962184906,
				-1.0562695264816284,
				1.6138209104537964
			],
			"type":"VEC3"
		},
		{
			"bufferView":17,
			"componentType":5126,
			"count":192,
			"type":"VEC3"
		},
		{
			"bufferView":18,
			"componentType":5126,
			"count":192,
			"type":"VEC2"
		},
		{
			"bufferView":19,
			"componentType":5123,
			"count":372,
			"type":"SCALAR"
		},
		{
			"bufferView":20,
			"componentType":5126,
			"count":640,
			"max":[
				0.21051746606826782,
				0.6621850728988647,
				1.4718352556228638
			],
			"min":[
				-0.8121586441993713,
				-0.754428505897522,
				0.24436581134796143
			],
			"type":"VEC3"
		},
		{
			"bufferView":21,
			"componentType":5126,
			"count":640,
			"type":"VEC3"
		},
		{
			"bufferView":22,
			"componentType":5126,
			"count":640,
			"type":"VEC2"
		},
		{
			"bufferView":23,
			"componentType":5123,
			"count":1680,
			"type":"SCALAR"
		},
		{
			"bufferView":24,
			"componentType":5126,
			"count":6372,
			"max":[
				0.25413990020751953,
				0.8353307247161865,
				1.879143476486206
			],
			"min":[
				-0.8985905051231384,
				-1.1642050743103027,
				0.7164453268051147
			],
			"type":"VEC3"
		},
		{
			"bufferView":25,
			"componentType":5126,
			"count":6372,
			"type":"VEC3"
		},
		{
			"bufferView":26,
			"componentType":5126,
			"count":6372,
			"type":"VEC2"
		},
		{
			"bufferView":27,
			"componentType":5123,
			"count":12564,
			"type":"SCALAR"
		},
		{
			"bufferView":28,
			"componentType":5126,
			"count":19504,
			"max":[
				0.25414007902145386,
				0.7500454187393188,
				1.4718352556228638
			],
			"min":[
				-0.8985903263092041,
				-1.1642050743103027,
				0.24436581134796143
			],
			"type":"VEC3"
		},
		{
			"bufferView":29,
			"componentType":5126,
			"count":19504,
			"type":"VEC3"
		},
		{
			"bufferView":30,
			"componentType":5126,
			"count":19504,
			"type":"VEC2"
		},
		{
			"bufferView":31,
			"componentType":5123,
			"count":42060,
			"type":"SCALAR"
		},
		{
			"bufferView":32,
			"componentType":5126,
			"count":520,
			"max":[
				0.015091240406036377,
				0.3625538945198059,
				0.03059542179107666
			],
			"min":[
				-1.1756699085235596,
				-1.1232022047042847,
				-0.030594468116760254
			],
			"type":"VEC3"
		},
		{
			"bufferView":33,
			"componentType":5126,
			"count":520,
			"type":"VEC3"
		},
		{
			"bufferView":34,
			"componentType":5126,
			"count":520,
			"type":"VEC2"
		},
		{
			"bufferView":35,
			"componentType":5123,
			"count":1488,
			"type":"SCALAR"
		}
	],
	"bufferViews":[
		{
			"buffer":0,
			"byteLength":27780,
			"byteOffset":0,
			"target":34962
		},
		{
			"buffer":0,
			"byteLength":27780,
			"byteOffset":27780,
			"target":34962
		},
		{
			"buffer":0,
			"byteLength":18520,
			"byteOffset":55560,
			"target":34962
		},
		{
			"buffer":0,
			"byteLength":14088,
			"byteOffset":74080,
			"target":34963
		},
		{
			"buffer":0,
			"byteLength":1383684,
			"byteOffset":88168,
			"target":34962
		},
		{
			"buffer":0,
			"byteLength":1383684,
			"byteOffset":1471852,
			"target":34962
		},
		{
			"buffer":0,
			"byteLength":922456,
			"byteOffset":2855536,
			"target":34962
		},
		{
			"buffer":0,
			"byteLength":2406996,
			"byteOffset":3777992,
			"target":34963
		},
		{
			"buffer":0,
			"byteLength":288,
			"byteOffset":6184988,
			"target":34962
		},
		{
			"buffer":0,
			"byteLength":288,
			"byteOffset":6185276,
			"target":34962
		},
		{
			"buffer":0,
			"byteLength":192,
			"byteOffset":6185564,
			"target":34962
		},
		{
			"buffer":0,
			"byteLength":72,
			"byteOffset":6185756,
			"target":34963
		},
		{
			"buffer":0,
			"byteLength":22644,
			"byteOffset":6185828,
			"target":34962
		},
		{
			"buffer":0,
			"byteLength":22644,
			"byteOffset":6208472,
			"target":34962
		},
		{
			"buffer":0,
			"byteLength":15096,
			"byteOffset":6231116,
			"target":34962
		},
		{
			"buffer":0,
			"byteLength":10308,
			"byteOffset":6246212,
			"target":34963
		},
		{
			"buffer":0,
			"byteLength":2304,
			"byteOffset":6256520,
			"target":34962
		},
		{
			"buffer":0,
			"byteLength":2304,
			"byteOffset":6258824,
			"target":34962
		},
		{
			"buffer":0,
			"byteLength":1536,
			"byteOffset":6261128,
			"target":34962
		},
		{
			"buffer":0,
			"byteLength":744,
			"byteOffset":6262664,
			"target":34963
		},
		{
			"buffer":0,
			"byteLength":7680,
			"byteOffset":6263408,
			"target":34962
		},
		{
			"buffer":0,
			"byteLength":7680,
			"byteOffset":6271088,
			"target":34962
		},
		{
			"buffer":0,
			"byteLength":5120,
			"byteOffset":6278768,
			"target":34962
		},
		{
			"buffer":0,
			"byteLength":3360,
			"byteOffset":6283888,
			"target":34963
		},
		{
			"buffer":0,
			"byteLength":76464,
			"byteOffset":6287248,
			"target":34962
		},
		{
			"buffer":0,
			"byteLength":76464,
			"byteOffset":6363712,
			"target":34962
		},
		{
			"buffer":0,
			"byteLength":50976,
			"byteOffset":6440176,
			"target":34962
		},
		{
			"buffer":0,
			"byteLength":25128,
			"byteOffset":6491152,
			"target":34963
		},
		{
			"buffer":0,
			"byteLength":234048,
			"byteOffset":6516280,
			"target":34962
		},
		{
			"buffer":0,
			"byteLength":234048,
			"byteOffset":6750328,
			"target":34962
		},
		{
			"buffer":0,
			"byteLength":156032,
			"byteOffset":6984376,
			"target":34962
		},
		{
			"buffer":0,
			"byteLength":84120,
			"byteOffset":7140408,
			"target":34963
		},
		{
			"buffer":0,
			"byteLength":6240,
			"byteOffset":7224528,
			"target":34962
		},
		{
			"buffer":0,
			"byteLength":6240,
			"byteOffset":7230768,
			"target":34962
		},
		{
			"buffer":0,
			"byteLength":4160,
			"byteOffset":7237008,
			"target":34962
		},
		{
			"buffer":0,
			"byteLength":2976,
			"byteOffset":7241168,
			"target":34963
		}
	],
	"samplers":[
		{
			"magFilter":9729,
			"minFilter":9987
		}
	],
	"buffers":[
		{
			"byteLength":7244144,
			"uri": "vending_machine_dog_0724.bin"
		}
	]
}
